<svg version="1.1" id="Layer_1" xmlns="http://www.w3.org/2000/svg" xmlns:xlink="http://www.w3.org/1999/xlink" x="0px" y="0px"
	 width="100%" viewBox="0 0 1000 803" enable-background="new 0 0 1000 803" xml:space="preserve">
<path fill="#000000" opacity="1.000000" stroke="none" 
	d="
M518.000000,0.999999 
	C678.961548,1.000000 839.923157,1.000000 1000.942383,1.000000 
	C1000.942383,268.564331 1000.942383,536.128662 1000.942383,804.000000 
	C838.974304,804.000000 676.948364,804.000000 514.133545,803.693298 
	C515.218445,802.592651 517.057251,801.700562 518.971497,801.020508 
	C532.966309,796.048950 544.250183,786.962036 554.601074,776.780212 
	C577.525696,754.230103 600.174133,731.398254 622.816833,708.563965 
	C625.336182,706.023376 627.758911,704.890869 631.412964,704.908813 
	C663.403748,705.066467 695.398010,705.219910 727.385559,704.862366 
	C736.648621,704.758789 746.026672,703.670166 755.118896,701.861267 
	C775.076233,697.890869 790.054749,686.960999 798.481873,668.011841 
	C804.669373,654.098633 806.551758,639.186646 806.831238,624.249817 
	C807.191162,605.010315 806.257019,585.748962 806.027649,566.495239 
	C805.880798,554.166870 805.855347,541.832214 806.129517,529.508240 
	C806.180603,527.207581 807.342896,524.382385 808.954834,522.749023 
	C829.435974,501.996490 850.087463,481.412079 870.707947,460.797150 
	C879.759338,451.748291 888.149353,442.250122 894.593750,431.031158 
	C904.912415,413.067535 905.577820,394.794861 897.499146,376.016083 
	C891.399902,361.838593 881.217712,350.527069 870.839294,339.485870 
	C864.269897,332.496948 856.887817,326.279510 850.060181,319.524139 
	C836.203308,305.814026 822.416809,292.030945 808.776794,278.105988 
	C807.267029,276.564575 806.114380,273.900940 806.127441,271.765839 
	C806.210205,258.177002 806.806641,244.592041 806.962158,231.002701 
	C807.129822,216.341827 807.511597,201.654114 806.840637,187.022110 
	C806.288574,174.983810 805.159302,162.845810 802.814941,151.044205 
	C798.879089,131.231201 788.234985,116.049721 769.154236,107.550308 
	C757.332336,102.284332 744.771667,100.351669 732.152893,100.162056 
	C699.835449,99.676414 667.505554,99.940201 635.181396,100.086777 
	C631.711792,100.102509 629.366577,99.062347 627.006531,96.624443 
	C611.402649,80.505905 595.737427,64.445076 579.940125,48.516212 
	C572.943604,41.461422 565.566833,34.785034 558.408386,27.889320 
	C547.062317,16.959698 534.570129,7.855726 519.375793,2.934791 
	C518.771667,2.739151 518.452148,1.664883 518.000000,0.999999 
z"/>
<path fill="#000000" opacity="1.000000" stroke="none" 
	d="
M484.000000,804.000000 
	C323.038361,804.000000 162.076736,804.000000 1.057549,804.000000 
	C1.057549,536.435486 1.057549,268.870972 1.057549,1.000000 
	C163.025696,1.000000 325.051605,1.000000 487.866760,1.309462 
	C485.561676,2.828933 482.422394,3.936180 479.380859,5.266981 
	C467.095215,10.642535 456.770020,18.828438 447.358002,28.186775 
	C424.436218,50.977844 401.595795,73.851105 378.818054,96.786018 
	C376.556000,99.063705 374.348724,100.087364 371.080597,100.074783 
	C338.922821,99.950935 306.761993,99.781029 274.607727,100.137665 
	C265.344696,100.240402 255.959763,101.307137 246.875687,103.143608 
	C226.966339,107.168549 211.852097,117.895020 203.496918,136.987656 
	C197.392136,150.937866 195.438461,165.821289 195.168472,180.759003 
	C194.814713,200.332352 195.738388,219.926636 195.973297,239.513580 
	C196.117157,251.508713 196.148697,263.510406 195.870117,275.500793 
	C195.816666,277.801300 194.651932,280.624847 193.038742,282.257385 
	C171.022232,304.538177 148.738556,326.555267 126.761490,348.874481 
	C121.272385,354.449005 116.157791,360.531677 111.699921,366.955933 
	C98.782646,385.571198 94.786438,405.357605 103.849510,427.171173 
	C110.010864,442.000732 120.272621,453.657257 130.816864,465.150574 
	C137.183777,472.090607 144.517899,478.133209 151.226501,484.771942 
	C165.319107,498.717743 179.343338,512.734375 193.221634,526.892517 
	C194.731949,528.433289 195.885117,531.097107 195.872253,533.231995 
	C195.791321,546.654236 195.187363,560.072632 195.038712,573.495361 
	C194.870789,588.656250 194.491623,603.842834 195.161377,618.975891 
	C195.694183,631.015259 196.669510,643.208191 199.227676,654.945190 
	C203.309891,673.674500 213.485321,688.442627 231.509537,696.889587 
	C243.685654,702.595825 256.731903,704.635254 269.843475,704.837036 
	C302.160675,705.334351 334.490936,705.059631 366.815125,704.913452 
	C370.283447,704.897766 372.622131,705.945251 374.995239,708.368469 
	C386.069702,719.676697 397.320374,730.812378 408.509125,742.008667 
	C412.513367,746.015564 416.811890,749.771484 420.471558,754.071472 
	C431.304413,766.799744 443.430969,778.115784 456.685516,788.247681 
	C464.697174,794.371948 473.436310,799.141357 483.121216,802.117920 
	C483.565033,802.254333 483.713806,803.350708 484.000000,804.000000 
z"/>
<path fill="#00FFFF" opacity="1.000000" stroke="none" 
	d="
M484.468658,804.000000 
	C483.713806,803.350708 483.565033,802.254333 483.121216,802.117920 
	C473.436310,799.141357 464.697174,794.371948 456.685516,788.247681 
	C443.430969,778.115784 431.304413,766.799744 420.471558,754.071472 
	C416.811890,749.771484 412.513367,746.015564 408.509125,742.008667 
	C397.320374,730.812378 386.069702,719.676697 374.995239,708.368469 
	C372.622131,705.945251 370.283447,704.897766 366.815125,704.913452 
	C334.490936,705.059631 302.160675,705.334351 269.843475,704.837036 
	C256.731903,704.635254 243.685654,702.595825 231.509537,696.889587 
	C213.485321,688.442627 203.309891,673.674500 199.227676,654.945190 
	C196.669510,643.208191 195.694183,631.015259 195.161377,618.975891 
	C194.491623,603.842834 194.870789,588.656250 195.038712,573.495361 
	C195.187363,560.072632 195.791321,546.654236 195.872253,533.231995 
	C195.885117,531.097107 194.731949,528.433289 193.221634,526.892517 
	C179.343338,512.734375 165.319107,498.717743 151.226501,484.771942 
	C144.517899,478.133209 137.183777,472.090607 130.816864,465.150574 
	C120.272621,453.657257 110.010864,442.000732 103.849510,427.171173 
	C94.786438,405.357605 98.782646,385.571198 111.699921,366.955933 
	C116.157791,360.531677 121.272385,354.449005 126.761490,348.874481 
	C148.738556,326.555267 171.022232,304.538177 193.038742,282.257385 
	C194.651932,280.624847 195.816666,277.801300 195.870117,275.500793 
	C196.148697,263.510406 196.117157,251.508713 195.973297,239.513580 
	C195.738388,219.926636 194.814713,200.332352 195.168472,180.759003 
	C195.438461,165.821289 197.392136,150.937866 203.496918,136.987656 
	C211.852097,117.895020 226.966339,107.168549 246.875687,103.143608 
	C255.959763,101.307137 265.344696,100.240402 274.607727,100.137665 
	C306.761993,99.781029 338.922821,99.950935 371.080597,100.074783 
	C374.348724,100.087364 376.556000,99.063705 378.818054,96.786018 
	C401.595795,73.851105 424.436218,50.977844 447.358002,28.186775 
	C456.770020,18.828438 467.095215,10.642535 479.380859,5.266981 
	C482.422394,3.936180 485.561676,2.828933 488.328003,1.309462 
	C497.687561,1.000000 507.375122,1.000000 517.531372,0.999999 
	C518.452148,1.664883 518.771667,2.739151 519.375793,2.934791 
	C534.570129,7.855726 547.062317,16.959698 558.408386,27.889320 
	C565.566833,34.785034 572.943604,41.461422 579.940125,48.516212 
	C595.737427,64.445076 611.402649,80.505905 627.006531,96.624443 
	C629.366577,99.062347 631.711792,100.102509 635.181396,100.086777 
	C667.505554,99.940201 699.835449,99.676414 732.152893,100.162056 
	C744.771667,100.351669 757.332336,102.284332 769.154236,107.550308 
	C788.234985,116.049721 798.879089,131.231201 802.814941,151.044205 
	C805.159302,162.845810 806.288574,174.983810 806.840637,187.022110 
	C807.511597,201.654114 807.129822,216.341827 806.962158,231.002701 
	C806.806641,244.592041 806.210205,258.177002 806.127441,271.765839 
	C806.114380,273.900940 807.267029,276.564575 808.776794,278.105988 
	C822.416809,292.030945 836.203308,305.814026 850.060181,319.524139 
	C856.887817,326.279510 864.269897,332.496948 870.839294,339.485870 
	C881.217712,350.527069 891.399902,361.838593 897.499146,376.016083 
	C905.577820,394.794861 904.912415,413.067535 894.593750,431.031158 
	C888.149353,442.250122 879.759338,451.748291 870.707947,460.797150 
	C850.087463,481.412079 829.435974,501.996490 808.954834,522.749023 
	C807.342896,524.382385 806.180603,527.207581 806.129517,529.508240 
	C805.855347,541.832214 805.880798,554.166870 806.027649,566.495239 
	C806.257019,585.748962 807.191162,605.010315 806.831238,624.249817 
	C806.551758,639.186646 804.669373,654.098633 798.481873,668.011841 
	C790.054749,686.960999 775.076233,697.890869 755.118896,701.861267 
	C746.026672,703.670166 736.648621,704.758789 727.385559,704.862366 
	C695.398010,705.219910 663.403748,705.066467 631.412964,704.908813 
	C627.758911,704.890869 625.336182,706.023376 622.816833,708.563965 
	C600.174133,731.398254 577.525696,754.230103 554.601074,776.780212 
	C544.250183,786.962036 532.966309,796.048950 518.971497,801.020508 
	C517.057251,801.700562 515.218445,802.592651 513.672363,803.693298 
	C504.312439,804.000000 494.624878,804.000000 484.468658,804.000000 
M728.000000,215.499985 
	C694.655273,182.146927 661.288635,148.815704 628.011902,115.394943 
	C625.629517,113.002213 623.329407,111.868446 619.844604,111.908676 
	C602.516357,112.108719 585.184082,112.055077 567.854614,111.915817 
	C566.097595,111.901711 563.611877,111.205261 562.782959,109.952774 
	C561.720520,108.347542 561.022461,105.154449 561.920166,103.913147 
	C563.278748,102.034645 566.123108,100.226364 568.381836,100.168411 
	C581.704224,99.826553 595.039917,100.009697 608.371033,99.983383 
	C609.569153,99.981018 610.766846,99.746078 612.772949,99.533508 
	C611.078491,97.729935 610.005005,96.524307 608.865906,95.384140 
	C591.435059,77.937172 574.249146,60.234276 556.447693,43.173752 
	C547.985474,35.063801 538.778625,27.553894 529.126038,20.909779 
	C518.146667,13.352437 505.536682,10.800750 492.316071,14.046670 
	C480.359192,16.982327 470.253082,23.627733 461.624908,32.052402 
	C439.926697,53.238853 418.655670,74.862648 397.181061,96.278671 
	C396.181763,97.275230 394.869263,97.957726 393.702637,98.786499 
	C393.983490,99.191040 394.264313,99.595589 394.545166,100.000137 
	C407.308167,100.000137 420.071320,99.962814 432.834076,100.020134 
	C437.374939,100.040520 440.450500,102.647568 439.923340,106.254776 
	C439.370514,110.037140 437.381927,112.159790 432.932953,112.090431 
	C417.772400,111.854073 402.602875,112.167671 387.443542,111.894356 
	C383.087524,111.815826 380.107117,113.169662 377.122223,116.243675 
	C366.328369,127.359978 355.307159,138.257156 344.287384,149.151657 
	C339.665009,153.721466 333.920135,153.185715 332.631622,147.860565 
	C332.118835,145.741440 333.450958,142.397568 335.072418,140.672958 
	C342.715179,132.544022 350.777191,124.810486 358.613495,116.860817 
	C359.748077,115.709793 360.470032,114.152016 361.449310,112.682869 
	C360.588593,112.275703 360.447784,112.149429 360.309387,112.152039 
	C325.146454,112.815605 289.891022,109.663429 254.829330,114.086891 
	C234.363556,116.668900 219.812561,127.113075 212.797897,147.382721 
	C208.780533,158.991348 207.358307,170.954895 207.203644,182.898468 
	C206.872391,208.476685 207.668259,234.069443 207.996735,259.656311 
	C208.021484,261.584442 208.000000,263.513123 208.000000,266.348846 
	C210.158676,264.676758 211.783356,263.663574 213.110947,262.350098 
	C221.559128,253.991623 229.840302,245.460571 238.436569,237.258972 
	C240.043198,235.726120 242.805191,234.852478 245.073929,234.769775 
	C246.462128,234.719177 249.014191,236.644974 249.140244,237.877808 
	C249.444611,240.854462 249.854843,243.911469 246.978470,246.692184 
	C234.760818,258.503418 222.791580,270.576324 210.945618,282.761719 
	C209.342163,284.411102 208.124191,287.238434 208.119888,289.522919 
	C207.975342,366.177032 207.975281,442.831512 208.120163,519.485596 
	C208.124466,521.769165 209.330032,524.625366 210.946075,526.247742 
	C265.512207,581.025879 320.181030,635.701904 374.943115,690.284241 
	C376.460876,691.796997 379.153656,692.855896 381.314331,692.883301 
	C397.975616,693.095276 414.641022,693.045044 431.304657,692.968140 
	C435.446747,692.949036 438.917084,693.398438 439.009644,698.693542 
	C439.083099,702.894348 436.515350,704.976685 430.989685,704.993164 
	C422.324493,705.019043 413.659180,705.000000 404.993896,705.000000 
	C400.124786,705.000000 395.255676,705.000000 390.386566,705.000000 
	C390.213409,705.420105 390.040253,705.840210 389.867096,706.260315 
	C398.157959,714.586792 406.440155,722.921936 414.741974,731.237488 
	C425.337952,741.851257 435.713837,752.700256 446.636932,762.966614 
	C454.009064,769.895569 461.847137,776.429260 470.044128,782.354919 
	C480.677246,790.041687 492.935669,794.007324 506.015839,791.768005 
	C519.788391,789.410339 531.342285,781.881287 541.192200,772.197021 
	C562.342285,751.402710 583.192017,730.302917 604.153137,709.316650 
	C605.233887,708.234619 606.205811,707.043823 608.038879,705.000000 
	C605.146301,705.000000 603.551208,705.000000 601.956055,705.000000 
	C589.958008,705.000000 577.959839,705.016968 565.961853,704.992371 
	C560.564453,704.981262 557.807983,702.842957 558.050354,698.533752 
	C558.315918,693.814209 561.529602,692.927185 565.657227,692.954163 
	C582.487122,693.064209 599.318726,692.929932 616.148315,693.064453 
	C619.183716,693.088684 621.331848,692.304260 623.505981,690.081421 
	C634.340637,679.004517 645.357910,668.105835 656.343140,657.176758 
	C660.064270,653.474609 664.591919,652.913879 667.166626,655.710083 
	C669.088501,657.797302 668.047546,663.440979 665.174866,666.296387 
	C656.494202,674.924927 647.800049,683.539734 638.264343,693.000000 
	C641.115051,693.000000 642.717957,693.000000 644.320923,693.000000 
	C666.317383,693.000000 688.314026,692.953430 710.310303,693.016724 
	C724.477783,693.057434 738.667114,693.296997 752.563660,689.966980 
	C766.487244,686.630432 777.862488,679.913513 785.147827,666.778931 
	C793.049805,652.532715 794.447388,636.932373 794.759094,621.445679 
	C795.293762,594.876587 794.327698,568.277222 793.979797,541.690735 
	C793.973572,541.214783 793.819885,540.740784 793.549255,539.225586 
	C791.681152,540.595215 790.074219,541.494385 788.812622,542.742676 
	C779.220825,552.233887 769.704529,561.801392 760.146301,571.326782 
	C757.157715,574.305115 753.398499,573.725708 750.748413,571.707214 
	C747.786133,569.450867 748.526428,565.869995 750.636414,562.925720 
	C751.305603,561.991882 752.254517,561.258057 753.077393,560.434692 
	C765.445557,548.058960 777.743042,535.611084 790.239258,523.366028 
	C792.911621,520.747314 794.092834,518.173401 794.086975,514.354614 
	C793.970337,438.533600 793.965088,362.712311 794.097595,286.891388 
	C794.104675,282.870056 792.859985,280.220276 790.061829,277.453125 
	C769.445679,257.065430 748.999634,236.505600 728.000000,215.499985 
M309.500000,693.000000 
	C325.262634,693.000000 341.025269,693.000000 357.915009,693.000000 
	C356.636078,690.992981 356.071136,689.712402 355.167114,688.750549 
	C348.360107,681.507812 341.651276,674.161987 334.606201,667.155518 
	C294.001740,626.773865 253.312912,586.477051 212.652985,546.151184 
	C212.299469,545.800537 212.010651,545.320251 211.587570,545.117004 
	C210.570953,544.628601 209.492416,544.269165 207.000000,543.295715 
	C207.000000,568.422607 206.572525,592.349487 207.179520,616.250061 
	C207.485092,628.282349 208.690857,640.479492 211.242569,652.221069 
	C214.668457,667.984985 223.535431,680.161438 239.152222,686.706665 
	C250.056198,691.276672 261.528656,692.294922 273.010071,692.869019 
	C284.812714,693.459229 296.667847,693.000000 309.500000,693.000000 
M794.053711,178.185257 
	C794.226318,167.329926 792.693970,156.709702 788.952759,146.525406 
	C784.224609,133.654434 776.158020,123.954788 763.082825,118.388367 
	C752.001770,113.670921 740.394653,112.387917 728.774231,112.163971 
	C701.969971,111.647415 675.149048,112.000000 648.334839,112.000000 
	C646.736511,112.000000 645.138184,112.000000 643.539856,112.000000 
	C643.180969,112.495819 642.822083,112.991638 642.463196,113.487457 
	C692.198425,163.226349 741.933594,212.965256 791.668823,262.704163 
	C792.251648,262.358063 792.834534,262.011963 793.417419,261.665863 
	C793.611572,259.983551 793.964478,258.302185 793.974182,256.618835 
	C794.036865,245.793777 793.971741,234.967911 794.049316,224.143036 
	C794.157043,209.098541 794.353333,194.054672 794.053711,178.185257 
M873.958252,361.648895 
	C871.727600,359.021484 869.664062,356.227661 867.239807,353.793060 
	C848.311890,334.783966 829.326477,315.831970 810.304688,296.916779 
	C809.322144,295.939789 807.845703,295.459564 806.423706,294.647858 
	C806.423706,365.586517 806.423706,435.744690 806.423706,506.813568 
	C808.264465,505.083954 809.468201,504.011841 810.606567,502.874359 
	C830.055359,483.440826 849.548950,464.051636 868.892883,444.514313 
	C872.679016,440.690430 876.106201,436.453339 879.301025,432.113831 
	C885.933533,423.105225 890.869263,413.114899 890.849915,401.792175 
	C890.823853,386.489960 883.851990,373.721802 873.958252,361.648895 
M160.500015,477.000000 
	C170.631226,487.134644 180.740662,497.291321 190.922165,507.375214 
	C192.152313,508.593567 193.772278,509.418335 195.595703,510.694275 
	C195.595703,439.451813 195.595703,369.283539 195.595703,298.168884 
	C193.747986,299.905121 192.553894,300.968628 191.424606,302.096954 
	C171.856583,321.648163 152.245209,341.156586 132.780212,360.809906 
	C129.110703,364.514923 125.780960,368.623627 122.724724,372.856689 
	C112.433167,387.111145 107.509811,402.545044 114.074249,419.849121 
	C118.821503,432.362976 126.937134,442.793457 136.015656,452.412354 
	C143.790100,460.649536 151.988892,468.486206 160.500015,477.000000 
z"/>
<path fill="#000000" opacity="1.000000" stroke="none" 
	d="
M728.250000,215.750000 
	C748.999634,236.505600 769.445679,257.065430 790.061829,277.453125 
	C792.859985,280.220276 794.104675,282.870056 794.097595,286.891388 
	C793.965088,362.712311 793.970337,438.533600 794.086975,514.354614 
	C794.092834,518.173401 792.911621,520.747314 790.239258,523.366028 
	C777.743042,535.611084 765.445557,548.058960 753.077393,560.434692 
	C752.254517,561.258057 751.305603,561.991882 750.636414,562.925720 
	C748.526428,565.869995 747.786133,569.450867 750.748413,571.707214 
	C753.398499,573.725708 757.157715,574.305115 760.146301,571.326782 
	C769.704529,561.801392 779.220825,552.233887 788.812622,542.742676 
	C790.074219,541.494385 791.681152,540.595215 793.549255,539.225586 
	C793.819885,540.740784 793.973572,541.214783 793.979797,541.690735 
	C794.327698,568.277222 795.293762,594.876587 794.759094,621.445679 
	C794.447388,636.932373 793.049805,652.532715 785.147827,666.778931 
	C777.862488,679.913513 766.487244,686.630432 752.563660,689.966980 
	C738.667114,693.296997 724.477783,693.057434 710.310303,693.016724 
	C688.314026,692.953430 666.317383,693.000000 644.320923,693.000000 
	C642.717957,693.000000 641.115051,693.000000 638.264343,693.000000 
	C647.800049,683.539734 656.494202,674.924927 665.174866,666.296387 
	C668.047546,663.440979 669.088501,657.797302 667.166626,655.710083 
	C664.591919,652.913879 660.064270,653.474609 656.343140,657.176758 
	C645.357910,668.105835 634.340637,679.004517 623.505981,690.081421 
	C621.331848,692.304260 619.183716,693.088684 616.148315,693.064453 
	C599.318726,692.929932 582.487122,693.064209 565.657227,692.954163 
	C561.529602,692.927185 558.315918,693.814209 558.050354,698.533752 
	C557.807983,702.842957 560.564453,704.981262 565.961853,704.992371 
	C577.959839,705.016968 589.958008,705.000000 601.956055,705.000000 
	C603.551208,705.000000 605.146301,705.000000 608.038879,705.000000 
	C606.205811,707.043823 605.233887,708.234619 604.153137,709.316650 
	C583.192017,730.302917 562.342285,751.402710 541.192200,772.197021 
	C531.342285,781.881287 519.788391,789.410339 506.015839,791.768005 
	C492.935669,794.007324 480.677246,790.041687 470.044128,782.354919 
	C461.847137,776.429260 454.009064,769.895569 446.636932,762.966614 
	C435.713837,752.700256 425.337952,741.851257 414.741974,731.237488 
	C406.440155,722.921936 398.157959,714.586792 389.867096,706.260315 
	C390.040253,705.840210 390.213409,705.420105 390.386566,705.000000 
	C395.255676,705.000000 400.124786,705.000000 404.993896,705.000000 
	C413.659180,705.000000 422.324493,705.019043 430.989685,704.993164 
	C436.515350,704.976685 439.083099,702.894348 439.009644,698.693542 
	C438.917084,693.398438 435.446747,692.949036 431.304657,692.968140 
	C414.641022,693.045044 397.975616,693.095276 381.314331,692.883301 
	C379.153656,692.855896 376.460876,691.796997 374.943115,690.284241 
	C320.181030,635.701904 265.512207,581.025879 210.946075,526.247742 
	C209.330032,524.625366 208.124466,521.769165 208.120163,519.485596 
	C207.975281,442.831512 207.975342,366.177032 208.119888,289.522919 
	C208.124191,287.238434 209.342163,284.411102 210.945618,282.761719 
	C222.791580,270.576324 234.760818,258.503418 246.978470,246.692184 
	C249.854843,243.911469 249.444611,240.854462 249.140244,237.877808 
	C249.014191,236.644974 246.462128,234.719177 245.073929,234.769775 
	C242.805191,234.852478 240.043198,235.726120 238.436569,237.258972 
	C229.840302,245.460571 221.559128,253.991623 213.110947,262.350098 
	C211.783356,263.663574 210.158676,264.676758 208.000000,266.348846 
	C208.000000,263.513123 208.021484,261.584442 207.996735,259.656311 
	C207.668259,234.069443 206.872391,208.476685 207.203644,182.898468 
	C207.358307,170.954895 208.780533,158.991348 212.797897,147.382721 
	C219.812561,127.113075 234.363556,116.668900 254.829330,114.086891 
	C289.891022,109.663429 325.146454,112.815605 360.309387,112.152039 
	C360.447784,112.149429 360.588593,112.275703 361.449310,112.682869 
	C360.470032,114.152016 359.748077,115.709793 358.613495,116.860817 
	C350.777191,124.810486 342.715179,132.544022 335.072418,140.672958 
	C333.450958,142.397568 332.118835,145.741440 332.631622,147.860565 
	C333.920135,153.185715 339.665009,153.721466 344.287384,149.151657 
	C355.307159,138.257156 366.328369,127.359978 377.122223,116.243675 
	C380.107117,113.169662 383.087524,111.815826 387.443542,111.894356 
	C402.602875,112.167671 417.772400,111.854073 432.932953,112.090431 
	C437.381927,112.159790 439.370514,110.037140 439.923340,106.254776 
	C440.450500,102.647568 437.374939,100.040520 432.834076,100.020134 
	C420.071320,99.962814 407.308167,100.000137 394.545166,100.000137 
	C394.264313,99.595589 393.983490,99.191040 393.702637,98.786499 
	C394.869263,97.957726 396.181763,97.275230 397.181061,96.278671 
	C418.655670,74.862648 439.926697,53.238853 461.624908,32.052402 
	C470.253082,23.627733 480.359192,16.982327 492.316071,14.046670 
	C505.536682,10.800750 518.146667,13.352437 529.126038,20.909779 
	C538.778625,27.553894 547.985474,35.063801 556.447693,43.173752 
	C574.249146,60.234276 591.435059,77.937172 608.865906,95.384140 
	C610.005005,96.524307 611.078491,97.729935 612.772949,99.533508 
	C610.766846,99.746078 609.569153,99.981018 608.371033,99.983383 
	C595.039917,100.009697 581.704224,99.826553 568.381836,100.168411 
	C566.123108,100.226364 563.278748,102.034645 561.920166,103.913147 
	C561.022461,105.154449 561.720520,108.347542 562.782959,109.952774 
	C563.611877,111.205261 566.097595,111.901711 567.854614,111.915817 
	C585.184082,112.055077 602.516357,112.108719 619.844604,111.908676 
	C623.329407,111.868446 625.629517,113.002213 628.011902,115.394943 
	C661.288635,148.815704 694.655273,182.146927 728.250000,215.750000 
M329.668121,583.008911 
	C329.123413,583.467041 328.112030,583.917603 328.104462,584.384460 
	C328.000244,590.821838 328.034058,597.261475 328.034058,603.740051 
	C440.936829,603.740051 553.339111,603.740051 665.975220,603.740051 
	C668.620544,569.083130 671.247437,534.667297 673.893494,500.000336 
	C667.537598,500.000336 661.707886,499.797302 655.912170,500.150970 
	C654.555908,500.233734 652.598328,501.963165 652.137329,503.342712 
	C649.230713,512.040283 647.064270,520.998230 643.908936,529.596985 
	C637.432434,547.246216 626.222534,560.986694 608.684021,568.648132 
	C591.892700,575.983154 573.851318,578.053955 555.861084,578.782227 
	C538.980713,579.465637 522.026855,578.332275 505.105377,578.000854 
	C493.964813,577.782593 483.103699,575.987610 472.678040,571.990051 
	C462.339783,568.025879 454.088379,561.884827 448.792816,551.612488 
	C442.423309,539.256836 441.279877,525.912109 441.193176,512.709656 
	C440.767578,447.886902 440.837280,383.059204 441.091858,318.234650 
	C441.176331,296.724121 441.299469,275.119202 443.337677,253.741714 
	C444.882568,237.538269 450.115173,229.108612 467.441833,225.108337 
	C475.647888,223.213776 484.133087,222.528366 492.771729,221.253830 
	C492.771729,214.899567 492.771729,208.162338 492.771729,201.223572 
	C439.519501,201.223572 386.457550,201.223572 333.233124,201.223572 
	C333.233124,208.190887 333.233124,214.933334 333.233124,221.547653 
	C342.026581,222.721298 350.637115,223.521637 359.106354,225.086746 
	C370.404083,227.174530 378.450745,233.308090 382.071045,244.774078 
	C386.155914,257.711426 385.621307,271.166443 385.734039,284.280548 
	C386.309692,351.267578 386.159698,418.262787 385.908142,485.253815 
	C385.826752,506.931091 385.283997,528.647583 383.769653,550.263306 
	C382.850616,563.381836 377.637787,574.066345 362.775116,577.849182 
	C352.295746,580.516296 341.349487,581.349121 329.668121,583.008911 
z"/>
<path fill="#000000" opacity="1.000000" stroke="none" 
	d="
M309.000000,693.000000 
	C296.667847,693.000000 284.812714,693.459229 273.010071,692.869019 
	C261.528656,692.294922 250.056198,691.276672 239.152222,686.706665 
	C223.535431,680.161438 214.668457,667.984985 211.242569,652.221069 
	C208.690857,640.479492 207.485092,628.282349 207.179520,616.250061 
	C206.572525,592.349487 207.000000,568.422607 207.000000,543.295715 
	C209.492416,544.269165 210.570953,544.628601 211.587570,545.117004 
	C212.010651,545.320251 212.299469,545.800537 212.652985,546.151184 
	C253.312912,586.477051 294.001740,626.773865 334.606201,667.155518 
	C341.651276,674.161987 348.360107,681.507812 355.167114,688.750549 
	C356.071136,689.712402 356.636078,690.992981 357.915009,693.000000 
	C341.025269,693.000000 325.262634,693.000000 309.000000,693.000000 
z"/>
<path fill="#000000" opacity="1.000000" stroke="none" 
	d="
M794.282715,178.597900 
	C794.353333,194.054672 794.157043,209.098541 794.049316,224.143036 
	C793.971741,234.967911 794.036865,245.793777 793.974182,256.618835 
	C793.964478,258.302185 793.611572,259.983551 793.417419,261.665863 
	C792.834534,262.011963 792.251648,262.358063 791.668823,262.704163 
	C741.933594,212.965256 692.198425,163.226349 642.463196,113.487457 
	C642.822083,112.991638 643.180969,112.495819 643.539856,112.000000 
	C645.138184,112.000000 646.736511,112.000000 648.334839,112.000000 
	C675.149048,112.000000 701.969971,111.647415 728.774231,112.163971 
	C740.394653,112.387917 752.001770,113.670921 763.082825,118.388367 
	C776.158020,123.954788 784.224609,133.654434 788.952759,146.525406 
	C792.693970,156.709702 794.226318,167.329926 794.282715,178.597900 
z"/>
<path fill="#000000" opacity="1.000000" stroke="none" 
	d="
M874.001282,362.008301 
	C883.851990,373.721802 890.823853,386.489960 890.849915,401.792175 
	C890.869263,413.114899 885.933533,423.105225 879.301025,432.113831 
	C876.106201,436.453339 872.679016,440.690430 868.892883,444.514313 
	C849.548950,464.051636 830.055359,483.440826 810.606567,502.874359 
	C809.468201,504.011841 808.264465,505.083954 806.423706,506.813568 
	C806.423706,435.744690 806.423706,365.586517 806.423706,294.647858 
	C807.845703,295.459564 809.322144,295.939789 810.304688,296.916779 
	C829.326477,315.831970 848.311890,334.783966 867.239807,353.793060 
	C869.664062,356.227661 871.727600,359.021484 874.001282,362.008301 
z"/>
<path fill="#000000" opacity="1.000000" stroke="none" 
	d="
M160.250015,476.750000 
	C151.988892,468.486206 143.790100,460.649536 136.015656,452.412354 
	C126.937134,442.793457 118.821503,432.362976 114.074249,419.849121 
	C107.509811,402.545044 112.433167,387.111145 122.724724,372.856689 
	C125.780960,368.623627 129.110703,364.514923 132.780212,360.809906 
	C152.245209,341.156586 171.856583,321.648163 191.424606,302.096954 
	C192.553894,300.968628 193.747986,299.905121 195.595703,298.168884 
	C195.595703,369.283539 195.595703,439.451813 195.595703,510.694275 
	C193.772278,509.418335 192.152313,508.593567 190.922165,507.375214 
	C180.740662,497.291321 170.631226,487.134644 160.250015,476.750000 
z"/>
<path fill="#00FFFF" opacity="1.000000" stroke="none" 
	d="
M330.139893,583.004883 
	C341.349487,581.349121 352.295746,580.516296 362.775116,577.849182 
	C377.637787,574.066345 382.850616,563.381836 383.769653,550.263306 
	C385.283997,528.647583 385.826752,506.931091 385.908142,485.253815 
	C386.159698,418.262787 386.309692,351.267578 385.734039,284.280548 
	C385.621307,271.166443 386.155914,257.711426 382.071045,244.774078 
	C378.450745,233.308090 370.404083,227.174530 359.106354,225.086746 
	C350.637115,223.521637 342.026581,222.721298 333.233124,221.547653 
	C333.233124,214.933334 333.233124,208.190887 333.233124,201.223572 
	C386.457550,201.223572 439.519501,201.223572 492.771729,201.223572 
	C492.771729,208.162338 492.771729,214.899567 492.771729,221.253830 
	C484.133087,222.528366 475.647888,223.213776 467.441833,225.108337 
	C450.115173,229.108612 444.882568,237.538269 443.337677,253.741714 
	C441.299469,275.119202 441.176331,296.724121 441.091858,318.234650 
	C440.837280,383.059204 440.767578,447.886902 441.193176,512.709656 
	C441.279877,525.912109 442.423309,539.256836 448.792816,551.612488 
	C454.088379,561.884827 462.339783,568.025879 472.678040,571.990051 
	C483.103699,575.987610 493.964813,577.782593 505.105377,578.000854 
	C522.026855,578.332275 538.980713,579.465637 555.861084,578.782227 
	C573.851318,578.053955 591.892700,575.983154 608.684021,568.648132 
	C626.222534,560.986694 637.432434,547.246216 643.908936,529.596985 
	C647.064270,520.998230 649.230713,512.040283 652.137329,503.342712 
	C652.598328,501.963165 654.555908,500.233734 655.912170,500.150970 
	C661.707886,499.797302 667.537598,500.000336 673.893494,500.000336 
	C671.247437,534.667297 668.620544,569.083130 665.975220,603.740051 
	C553.339111,603.740051 440.936829,603.740051 328.034058,603.740051 
	C328.034058,597.261475 328.000244,590.821838 328.104462,584.384460 
	C328.112030,583.917603 329.123413,583.467041 330.139893,583.004883 
z"/>
</svg>